<svg width="28" height="28" viewBox="0 0 28 28" fill="none" xmlns="http://www.w3.org/2000/svg">
<path d="M27.7276 11.258H26.5999V11.1999H14V16.7999H21.9121C20.7578 20.0598 17.6561 22.3999 14 22.3999C9.36112 22.3999 5.60003 18.6388 5.60003 13.9999C5.60003 9.36105 9.36112 5.59997 14 5.59997C16.1413 5.59997 18.0894 6.40777 19.5727 7.72726L23.5325 3.76738C21.0322 1.43709 17.6876 0 14 0C6.26853 0 6.10352e-05 6.26847 6.10352e-05 13.9999C6.10352e-05 21.7314 6.26853 27.9999 14 27.9999C21.7315 27.9999 27.9999 21.7314 27.9999 13.9999C27.9999 13.0612 27.9033 12.1449 27.7276 11.258Z" fill="#FFC107"/>
<path d="M1.6142 7.48366L6.21387 10.8569C7.45847 7.77556 10.4727 5.59997 13.9999 5.59997C16.1412 5.59997 18.0893 6.40777 19.5726 7.72726L23.5325 3.76738C21.0321 1.43709 17.6875 0 13.9999 0C8.62256 0 3.95919 3.03588 1.6142 7.48366Z" fill="#FF3D00"/>
<path d="M13.9998 28C17.616 28 20.9018 26.6161 23.3861 24.3657L19.0531 20.6991C17.6003 21.8039 15.8251 22.4015 13.9998 22.4001C10.3585 22.4001 7.26658 20.0782 6.10179 16.8379L1.53641 20.3554C3.8534 24.8892 8.55877 28 13.9998 28Z" fill="#4CAF50"/>
<path d="M27.7276 11.0581H26.5999V11H14V16.6H21.9121C21.3599 18.1515 20.3653 19.5072 19.0512 20.4997L19.0533 20.4983L23.3863 24.1648C23.0797 24.4434 27.9999 20.8 27.9999 13.8C27.9999 12.8613 27.9033 11.945 27.7276 11.0581Z" fill="#1976D2"/>
</svg>
